<svg height="480pt" viewBox="0 -30 480.00001 480" width="480pt" xmlns="http://www.w3.org/2000/svg"><path d="m480 393.03125c.015625 14.5-11.738281 26.265625-26.238281 26.269531h-427.523438c-14.488281 0-26.238281-11.75-26.238281-26.242187 0-14.492188 11.75-26.238282 26.238281-26.238282h139.800781c6.550782 0 11.859376 5.308594 11.859376 11.859376 0 3.148437 1.246093 6.164062 3.472656 8.390624 2.222656 2.226563 5.242187 3.472657 8.390625 3.46875h94.867187c6.550782 0 11.859375-5.308593 11.859375-11.859374 0-3.144532 1.246094-6.164063 3.472657-8.390626 2.222656-2.222656 5.242187-3.472656 8.390624-3.46875h145.410157c14.480469-.003906 26.222656 11.730469 26.238281 26.210938zm0 0" fill="#cc7350"/><path d="m468 20.578125v91.613281c.003906 5.457032-2.164062 10.695313-6.023438 14.550782-3.859374 3.859374-9.097656 6.023437-14.554687 6.019531h-69.402344c-.914062.007812-1.78125.394531-2.402343 1.0625-.625.667969-.945313 1.5625-.886719 2.476562 1.71875 40.71875-32.71875 50.019531-32.71875 50.019531s13.316406-53.558593-22.933594-53.558593h-17.75c-9.300781-.003907-17.449219-6.246094-19.867187-15.230469-.476563-1.742188-.714844-3.539062-.710938-5.339844v-91.613281c0-11.363281 9.214844-20.578125 20.578125-20.578125h146.09375c11.367187-.00390625 20.582031 9.210938 20.578125 20.578125zm0 0" fill="#f8ec7d"/><path d="m453.328125 366.410156v.410156h-144.976563c-3.148437-.003906-6.167968 1.246094-8.390624 3.46875-2.226563 2.226563-3.472657 5.246094-3.472657 8.390626 0 6.550781-5.308593 11.859374-11.859375 11.859374h-94.867187c-3.148438.003907-6.167969-1.242187-8.390625-3.46875-2.226563-2.226562-3.472656-5.242187-3.472656-8.390624 0-6.550782-5.308594-11.859376-11.859376-11.859376h-135.007812v-266.660156c0-13.101562 10.617188-23.71875 23.71875-23.71875h226v35.75c-.003906 1.800782.234375 3.597656.710938 5.339844h-211.089844v212.578125h343.617187v-197.347656h33.433594c2 0 3.992187-.289063 5.90625-.863281zm0 0" fill="#e48e66"/><path d="m304.210938 188.699219c8.71875 0 15.789062-7.070313 15.789062-15.789063 0-8.722656-7.070312-15.789062-15.789062-15.789062-8.722657 0-15.789063 7.066406-15.789063 15.789062 0 8.71875 7.066406 15.789063 15.789063 15.789063zm109.777343-55.9375v197.347656h-343.617187v-212.578125h211.089844c2.417968 8.984375 10.566406 15.226562 19.867187 15.230469h17.75c36.25 0 22.933594 53.558593 22.933594 53.558593s34.4375-9.300781 32.71875-50.019531c-.058594-.914062.261719-1.808593.886719-2.476562.621093-.667969 1.488281-1.054688 2.402343-1.0625zm0 0" fill="#6fe3ff"/><path d="m320 172.910156c0 8.71875-7.070312 15.789063-15.789062 15.789063-8.722657 0-15.789063-7.070313-15.789063-15.789063 0-8.722656 7.066406-15.789062 15.789063-15.789062 8.71875 0 15.789062 7.066406 15.789062 15.789062zm0 0" fill="#e48e66"/><path d="m288.421875 214.410156c17.4375 0 31.578125 14.140625 31.578125 31.578125 0 17.441407-14.140625 31.582031-31.578125 31.582031zm0 0" fill="#e48e66"/><path d="m237.539062 193.359375h20.882813c16.566406 0 30 13.433594 30 30v45.261719c0 16.566406-13.433594 30-30 30h-108.421875c-16.570312 0-30-13.433594-30-30v-45.261719c0-16.566406 13.429688-30 30-30zm22 55.960937v-8.332031c0-5.519531-4.476562-10-10-10-5.523437 0-10 4.480469-10 10v8.332031zm-35.328124 15.96875h-40c0 11.046876 8.953124 20 20 20 11.042968 0 20-8.953124 20-20zm-55.332032-15.96875v-8.332031c0-5.519531-4.476562-10-10-10-5.523437 0-10 4.480469-10 10v8.332031zm0 0" fill="#f8ec7d"/><path d="m259.539062 240.988281v8.332031h-20v-8.332031c0-5.519531 4.476563-10 10-10 5.523438 0 10 4.480469 10 10zm0 0" fill="#e48e66"/><path d="m237.539062 178.390625v14.96875h-66.660156v-14.96875c0-2.761719 2.238282-5 5-5h56.660156c2.761719 0 5 2.238281 5 5zm0 0" fill="#e48e66"/><path d="m184.210938 265.289062h40c0 11.046876-8.957032 20-20 20-11.046876 0-20-8.953124-20-20zm0 0" fill="#e48e66"/><path d="m168.878906 240.988281v8.332031h-20v-8.332031c0-5.519531 4.476563-10 10-10 5.523438 0 10 4.480469 10 10zm0 0" fill="#e48e66"/><path d="m298.210938 187.640625h12v30.976563h-12zm0 0" fill="#f8ec7d"/><path d="m204 179.390625c-3.3125 0-6-2.6875-6-6v-14.660156c0-3.3125 2.6875-6 6-6s6 2.6875 6 6v14.660156c0 3.3125-2.6875 6-6 6zm0 0" fill="#f8ec7d"/><g fill="#e48e66"><path d="m437.648438 48.390625h-45.269532c-3.3125 0-6-2.6875-6-6s2.6875-6 6-6h45.269532c3.316406 0 6 2.6875 6 6s-2.683594 6-6 6zm0 0"/><path d="m367.691406 48.390625h-56.589844c-3.316406 0-6-2.6875-6-6s2.683594-6 6-6h56.589844c3.3125 0 6 2.6875 6 6s-2.6875 6-6 6zm0 0"/><path d="m437.648438 74.109375h-90.539063c-3.3125 0-6-2.6875-6-6s2.6875-6 6-6h90.539063c3.316406 0 6 2.6875 6 6s-2.683594 6-6 6zm0 0"/><path d="m322.421875 74.109375h-11.320313c-3.316406 0-6-2.6875-6-6s2.683594-6 6-6h11.320313c3.3125 0 6 2.6875 6 6s-2.6875 6-6 6zm0 0"/><path d="m437.648438 99.828125h-49.378907c-3.3125 0-6-2.683594-6-6 0-3.3125 2.6875-6 6-6h49.378907c3.316406 0 6 2.6875 6 6 0 3.316406-2.683594 6-6 6zm0 0"/><path d="m363.570312 99.828125h-52.46875c-3.316406 0-6-2.683594-6-6 0-3.3125 2.683594-6 6-6h52.46875c3.3125 0 6 2.6875 6 6 0 3.316406-2.6875 6-6 6zm0 0"/><path d="m304.210938 194.699219c-12.035157 0-21.789063-9.753907-21.789063-21.789063s9.753906-21.789062 21.789063-21.789062c12.035156 0 21.789062 9.753906 21.789062 21.789062-.015625 12.027344-9.761719 21.777344-21.789062 21.789063zm0-31.578125c-5.40625 0-9.789063 4.382812-9.789063 9.789062s4.382813 9.789063 9.789063 9.789063 9.789062-4.382813 9.789062-9.789063c-.003906-5.40625-4.386719-9.785156-9.789062-9.789062zm0 0"/></g></svg>